<?xml version="1.0" encoding="utf-8"?>
<!-- Generator: Adobe Illustrator 25.2.1, SVG Export Plug-In . SVG Version: 6.00 Build 0)  -->
<svg version="1.1" id="Capa_1" xmlns="http://www.w3.org/2000/svg" xmlns:xlink="http://www.w3.org/1999/xlink" x="0px" y="0px"
	 viewBox="0 0 1125.9 1446.9" style="enable-background:new 0 0 1125.9 1446.9;" xml:space="preserve">
<g>
	<g>
		<path d="M444.4,1193.6c-201.4,0-365.3-163.9-365.3-365.3V469.8c0-201.4,163.9-365.3,365.3-365.3s365.3,163.9,365.3,365.3v358.4
			C809.7,1029.7,645.8,1193.6,444.4,1193.6z M444.4,107.2c-199.9,0-362.6,162.7-362.6,362.6v358.4c0,199.9,162.7,362.6,362.6,362.6
			S807,1028.2,807,828.2V469.8C807,269.9,644.3,107.2,444.4,107.2z"/>
		<path d="M116.3,864.1V505.6c0-201,162.9-364,364-364l0,0c91.4,0,174.9,33.7,238.8,89.3c-66.7-76.7-165-125.1-274.6-125.1l0,0
			c-201,0-364,162.9-364,364v358.4c0,109.6,48.5,207.9,125.1,274.6C150,1039,116.3,955.5,116.3,864.1z"/>
		<path d="M681.5,253.3c-159.3,0-295.1,102.5-345,245c0.8,0.5,1.6,1,2.4,1.5c49.3-141.7,184.2-243.7,342.6-243.7
			c199.9,0,362.6,162.7,362.6,362.6v358.4c0,199.9-162.7,362.6-362.6,362.6S318.9,1177,318.9,977.1V618.7c0-4.4,0.1-8.8,0.2-13.1
			c-0.9,0.7-1.8,1.3-2.8,1.8c-0.1,3.8-0.2,7.6-0.2,11.4v358.4c0,201.4,163.9,365.3,365.3,365.3s365.3-163.9,365.3-365.3V618.7
			C1046.8,417.2,883,253.3,681.5,253.3z"/>
		<path d="M920.3,344c55.6,63.9,89.3,147.4,89.3,238.8v358.4c0,201-162.9,364-364,364l0,0c-91.4,0-174.9-33.7-238.8-89.3
			c66.7,76.7,165,125.2,274.7,125.2l0,0c201,0,364-162.9,364-364V618.7C1045.5,509,997,410.8,920.3,344z"/>
	</g>
	<path d="M830.5,993.2L830.5,993.2L830.5,993.2c-1.2-0.4-2.6-1.2-3.8-3.9c-1.7-3.8-2.9-7.4-3.6-10.6v-0.1c-2.3-9.9-3.6-20.2-4-30.4
		V948c-0.3-4-0.4-8.1-0.4-12.2V545.2c0-4.5-0.1-9.2-0.2-13.9c-0.3-11.2-0.1-22.5,0.4-33.7c0.5-10.8,2.1-21.4,4.7-31.6l0.1-0.4
		c0.4-2.1,1.1-4.3,2.1-6.7c0.9-2.1,2-3.9,3.3-5.4c0.5-0.5,0.7-0.6,1.3-0.6v-15h-68.3l-2.2,3.7c-39.6,68.2-72.4,124.4-98.2,168.8
		c-25.8,44.4-48.9,84.1-69.3,119.1c-13.1,22.6-22.7,39-28.6,49.2l-198-340.1h-70.7v7.5l0,0l0,0v7.5c0.9,0,1.2,0.2,1.5,0.6
		c1.4,1.7,2.5,3.6,3.4,5.9c1,2.5,1.7,4.9,2.2,7.1l0.1,0.3c2.4,10,3.8,20.5,4.4,31c0,3.6,0,26.4,0.1,68.3
		c0.1,43.8,0.1,93.7,0.1,148.3v221.6c0,8.6-0.4,17.6-1.3,26.6c-0.8,8.5-2.7,16.7-5.7,24.2c-0.8,2-1.9,3.9-3.3,5.6
		c-0.4,0.5-0.7,0.7-1.5,0.7v7.5l0,0l0,0v7.5h46.4v-7.5l0,0l0,0v-7.5c-0.8,0-1.9,0-3.2-2.4c-1.9-3.5-3.4-7.6-4.3-12.2
		c-1-5-1.7-9.4-2.1-13l-0.1-0.8l-0.1-0.4v-0.1c-1-7.9-1.7-15.8-1.9-23.5V530.2c5.6,9.6,12.9,22.1,21.8,37.3
		c21,36.1,45.1,77.4,71.4,122.9c26.4,45.5,50.1,86.2,70.5,121.2c20.5,35.2,31.2,53.5,32.7,55.9l6.6,10.9l6.3-11
		c4-7,16.6-28.7,37.4-64.5c21-36.1,44.8-77,71.4-122.8l14.2-24.4c20.9-35.9,39.9-68.5,56.8-97.6c9.6-16.5,17.4-29.9,23.4-40.1
		c0.1,13.7,0.2,32.4,0.3,55.9c0.1,47.8,0.2,100.7,0.1,157.2c-0.1,57.2-0.2,105-0.3,142.1v39.6c0,4.2,0.1,8.4,0.2,12.5
		c0.3,10.9,0.1,21.9-0.6,32.7c-0.6,10.2-2.8,20-6.4,29.1c-0.8,1.9-1.9,3.8-3.3,5.5c-0.6,0.7-0.9,0.8-1.4,0.8v7.5l0,0l0,0v7.5h99.5
		l0.1-14.2l0.2-0.8C830.6,993.3,830.6,993.3,830.5,993.2z"/>
</g>
</svg>
