<?xml version="1.0" encoding="utf-8"?>
<!-- Generator: Adobe Illustrator 25.2.1, SVG Export Plug-In . SVG Version: 6.00 Build 0)  -->
<svg version="1.1" id="Capa_1" xmlns="http://www.w3.org/2000/svg" xmlns:xlink="http://www.w3.org/1999/xlink" x="0px" y="0px"
	 viewBox="0 0 4852.5 1405" style="enable-background:new 0 0 4852.5 1405;" xml:space="preserve">
<style type="text/css">
	.st0{fill:#2B2B2B;}
</style>
<g id="Capa_2_1_">
	<g id="Capa_2-2">
		<path class="st0" d="M1060.6,1394.8c1.2,0.3,2.4,0.4,3.6,0.4H866.3c5.5,0.1,10.8-2.3,14.4-6.5c3.7-4.2,6.7-8.9,8.9-14
			c7.9-18.6,12.6-38.4,13.8-58.5c1.3-20.6,1.7-41.3,1.2-62.1c-0.3-7.6-0.4-15.2-0.4-22.9v-73.7c0.3-69.6,0.5-157.8,0.6-264.5
			s0.1-204.3-0.2-292.7c-0.3-88.4-0.8-139.7-1.6-153.9l-0.8,0.8v0.4c-7.1,11.3-31.2,50.1-72.5,116.4L688.5,791.2
			c-52.9,85.1-100.3,161.3-142,228.5S479.9,1127,472,1139.9c-2.9-4.5-24.5-39.1-64.8-103.8s-87-139.9-140.1-225.6
			c-53.1-85.6-100.4-161.9-142-228.7S59.8,477.1,54,468.1v817.1c0.5,15.2,1.9,30.3,3.9,45.3c0,0.7,0.2,1.4,0.4,2
			c0.8,7.1,2.2,15.6,4.3,25.4c1.9,9.3,5.3,18.3,10,26.6c4.6,7.9,11.1,11.8,19.5,11.8H0c5.6,0.2,11-2.2,14.6-6.5
			c3.6-4.2,6.5-8.9,8.7-14c6.6-15.5,10.8-32,12.4-48.9c1.7-17.3,2.6-34.3,2.6-50.8V863.7c0-104.5-0.1-196.5-0.2-276
			c-0.1-79.5-0.2-121.9-0.2-127.5c-1-20.5-4-40.8-9.1-60.7c-1.2-5.4-2.9-10.7-5.1-15.8c-2.2-5.3-5.3-10.2-9.1-14.6
			C10.9,365.1,6,363,0,362.9h132l402.2,646.9c6-9.7,29.3-47.1,69.7-112.3s86.3-139,137.7-221.6c51.3-82.6,116.4-187.3,195.2-314.2
			h127.3c-5.2-0.1-10.3,2-13.8,5.9c-3.8,4.1-6.8,8.7-9.1,13.8c-2.2,4.8-3.9,9.8-5.1,15c-5.5,20.1-8.8,40.8-9.8,61.7
			c-1.1,21.2-1.3,42.4-0.8,63.6c0.3,8.7,0.4,17.2,0.4,25.6v726.9c0,7.9,0.3,15.8,0.8,23.6c0.8,19.9,3.6,39.7,8.3,59.1
			c1.8,7.8,4.5,15.4,8.1,22.7C1046.8,1387.6,1052.7,1392.7,1060.6,1394.8z"/>
		<path class="st0" d="M1663.7,1164.1h61.8c-12.5,40.6-31.9,78.7-57.5,112.6c-25.5,34-57.3,62.8-93.6,84.8
			c-65,37.5-132.9,50.7-203.6,39.6s-132.1-43.6-184.1-97.5c-50-54.7-80.7-118.1-92.4-190.3s-3.2-142.2,25.4-210.1v-0.4
			c28.5-68.2,73.9-122.2,136-162.1c30.9-19,64.8-32.5,100.3-40c19.5-3.7,39.4-5.4,59.3-5.2c19.8,0.3,39.6,1.7,59.3,4.4v0.4
			c64.5,13.5,119.3,43.3,164.5,89.6c44.7,45.4,76.9,101.5,93.6,162.9h-517.7c-0.3,51.8,7.4,103.3,23,152.6c0.4,1.8,1,3.6,1.6,5.3
			c0.5,1.5,1.1,3,1.6,4.6c0.5,1.6,1,3.3,1.6,5.2c12.4,36.7,29,72,49.4,105c20.3,33.1,45.6,62.8,75.1,88
			c23.9,20.7,51.7,36.5,81.7,46.4c30.7,10.3,61.6,10.2,92.8-0.4c3.2-1.3,6.5-2.7,9.9-4c9.4-4.7,18.6-10,27.3-15.9
			C1626.1,1302.5,1654.4,1244,1663.7,1164.1z M1215.7,937h439.6c-15-54.1-41.9-104.1-78.9-146.3c-16.1-18.5-34.6-34.6-55.1-48
			c-20.5-13.4-43.4-22.7-67.4-27.3c-48.4-8.5-94.8-2.5-139.2,17.8c-23.4,12.1-43.2,30.2-57.3,52.5c-14.3,22.6-24.7,47.4-30.9,73.3
			C1220.3,884.6,1216.6,910.7,1215.7,937z"/>
		<path class="st0" d="M2083.5,733.2c32.5-15.1,65.5-22.5,99.1-22.2l-36.5,106.2c-24.6-4.8-46.2-7.3-65-7.7
			c-18.8-0.4-38.2,2.4-58.5,8.3c-20.2,5.9-38.8,16.8-55.7,32.7c-16.7,22.2-28.2,39-34.5,50.3l-0.4,0.4c-0.8,1.9-3.2,6.4-7.1,13.7
			s-8.3,15.4-13.1,24.4c-4.8,9-9,16.9-12.7,23.8V1285c0.5,16.4,1.9,33.5,4.2,51.3c2.2,17.8,6.1,33.2,11.5,46
			c5.4,12.8,13.1,19.2,23.2,19.2h-199.4c9,0,16.1-5.4,21.4-16.1c5.3-10.7,9.3-23.9,11.9-39.6c2.6-15.7,4.2-31.5,4.8-47.4V933.4
			c0-19.3-0.5-36.1-1.4-50.5c-0.9-14.4-2.2-26.7-3.8-36.9c-1.2-8.6-3-17-5.3-25.4c-1.5-5.5-3.5-10.8-6.1-15.9
			c-1.6-3.2-3.8-6.1-6.3-8.5c-1.6-1.6-3.6-2.7-5.7-3.4c-1.4-0.4-2.8-0.5-4.2-0.4c-0.7,0-1.4,0.2-2,0.6l34.9-19.4l122.5-67.8V929
			c5.6-10,10.3-18.8,14.3-26.2c0.8-1.6,1.7-3.3,2.8-5.2s2-3.4,2.8-4.8c0.5-0.7,0.9-1.5,1.2-2.4c5.3-9,13.3-21,24-36.1
			c10.7-15.1,24.1-31.1,40.2-48C2015.5,774,2048.6,749.6,2083.5,733.2z"/>
		<path class="st0" d="M2941.7,701.9h17.9l-330.2,697.3h-65.8l-302.9-639.8c-8.3-14.5-18-28.1-28.9-40.6
			c-10-11.2-19.8-16.8-29.3-16.8h166.1l286.6,605.3L2941.7,701.9z"/>
		<path class="st0" d="M3483.2,1164.1h61.8c-12.5,40.6-31.9,78.7-57.5,112.6c-25.5,34-57.3,62.8-93.6,84.8
			c-65,37.5-132.9,50.7-203.6,39.6c-70.7-11.1-132.1-43.6-184.1-97.5c-50-54.7-80.7-118.1-92.4-190.3s-3.2-142.2,25.4-210.1v-0.4
			c28.5-68.2,73.9-122.2,136-162.1c30.9-19,64.8-32.5,100.3-40c19.5-3.7,39.4-5.4,59.3-5.2c19.8,0.3,39.6,1.7,59.3,4.4v0.4
			c64.5,13.5,119.3,43.3,164.5,89.6c44.7,45.4,76.9,101.5,93.6,162.9h-517.8c-0.3,51.8,7.4,103.3,23,152.6c0.4,1.8,1,3.6,1.6,5.3
			c0.5,1.5,1.1,3,1.6,4.6s1,3.3,1.6,5.2c12.4,36.8,29,72,49.4,105c20.3,33.1,45.6,62.8,75.1,88c23.9,20.7,51.7,36.5,81.7,46.4
			c30.7,10.3,61.6,10.2,92.8-0.4c3.2-1.3,6.5-2.7,9.9-4c9.4-4.7,18.6-10,27.4-15.9C3445.7,1302.5,3474,1244,3483.2,1164.1z
			 M3035.3,937h439.6c-15-54.1-42-104.1-78.9-146.3c-16.1-18.5-34.6-34.6-55.1-48c-20.5-13.4-43.4-22.7-67.4-27.3
			c-48.4-8.5-94.8-2.5-139.1,17.8c-24.1,12.7-43.1,30.2-57.3,52.5c-14.3,22.6-24.7,47.4-30.9,73.3
			C3039.8,884.6,3036.2,910.7,3035.3,937z"/>
		<path class="st0" d="M3964.5,37.9c32,21.4,56.8,48.6,74.3,81.7c17.6,33,25.7,67.8,24.4,104.3c-1.8,36.5-13,69.4-33.5,98.9
			c-20.5,29.5-46.6,50.8-78.3,64v897.1c0.3,17.3,1.7,34.6,4,51.7c2.4,17.8,6.3,33.2,11.7,46c5.4,12.8,13,19.2,22.8,19.2h-199
			c9,0,16.1-5.4,21.4-16.3c5.3-10.8,9.2-24.1,11.7-39.8c2.5-15.7,4.2-31.5,4.9-47.4V588.5c0-19.3-0.5-36.1-1.4-50.5
			c-0.9-14.4-2.2-26.8-3.8-37.1c-1.2-8.6-3.1-17.1-5.6-25.4c-1.7-5.5-3.8-10.8-6.3-15.9c-2.1-4-4.2-6.8-6.3-8.5
			c-1.6-1.4-3.5-2.5-5.6-3.2c-1.4-0.4-2.8-0.5-4.2-0.4c-0.8,0-1.5,0.2-2.2,0.6l35.3-19.4l122.5-67.8v8.7
			c27.5-13,49.9-32.6,67.4-58.9s27.1-55.6,28.9-87.9c1.1-33.8-6.6-66-23-96.5s-39.4-55.6-69-75.1c-58.9-36.2-124.1-44.6-195.4-25.3
			c-64.5,19.6-118.5,59.5-162.1,119.7c-40.4,58.7-62.1,123.9-65,195.8s12.6,139.1,46.4,201.8c2.7-18.2,10.7-33.4,24-45.4
			s29.1-18,47.4-18c20.1,0,37.1,7,51.1,21s21,31,21,51.1c0,19.8-7,36.7-21,50.8s-31,21-51.1,21c-13.5,0.1-26.8-3.6-38.3-10.9
			c-11.3-7.1-20.4-17.2-26.4-29.1c-43.9-62.7-67-134.8-69.4-216.5c-1.1-86.9,21.7-163.9,68.2-230.7c46-63.2,103-105.2,170.9-126.1
			C3832.1-9.8,3901.6-0.7,3964.5,37.9z M3729.8,1283.9c0.5,16.7,1.9,33.9,4.2,51.7c2.3,17.8,6.1,33.2,11.5,46
			c5.4,12.8,13.2,19.2,23.2,19.2h-199.4c9,0,16.1-5.4,21.4-16.3c5.3-10.8,9.3-24.1,11.9-39.8c2.6-15.7,4.2-31.5,4.8-47.4V932.6
			c0-19.5-0.5-36.5-1.4-50.9s-2.2-26.7-3.8-36.9c-1.2-8.6-3-17-5.4-25.4c-1.5-5.5-3.5-10.8-6.1-15.9c-1.6-3.2-3.8-6.1-6.3-8.5
			c-1.6-1.6-3.6-2.7-5.8-3.4c-1.4-0.4-2.8-0.5-4.2-0.2c-0.7,0.1-1.4,0.4-2,0.8l34.9-19.4l122.5-67.8L3729.8,1283.9L3729.8,1283.9z"
			/>
		<path class="st0" d="M4207.1,1401.6h-199c9,0,16.1-5.4,21.4-16.1c5.3-10.7,9.2-23.9,11.7-39.6c2.5-15.7,4.2-31.5,5-47.4V589.7
			c0-19.6-0.5-36.5-1.4-50.9s-2.2-26.7-3.8-36.9c-1.2-8.6-3.1-17.1-5.6-25.4c-1.6-5.5-3.7-10.8-6.3-15.9c-1.6-3.1-3.7-6-6.1-8.5
			c-1.5-1.6-3.4-2.7-5.6-3.4c-1.4-0.4-2.9-0.4-4.4-0.2c-0.7,0.2-1.4,0.3-2.2,0.4l157.8-86.8V1285c0.3,17.2,1.7,34.3,4,51.3
			c2.4,17.8,6.3,33.2,11.7,46C4189.8,1395.2,4197.4,1401.6,4207.1,1401.6z"/>
		<path class="st0" d="M4783.5,1164.1h61.9c-12.5,40.6-31.9,78.7-57.5,112.6c-25.5,34-57.3,62.8-93.5,84.8
			c-65,37.5-132.9,50.7-203.6,39.6s-132.1-43.6-184.1-97.5c-50-54.7-80.8-118.1-92.4-190.3s-3.2-142.2,25.4-210.1v-0.4
			c28.5-68.2,73.9-122.2,136-162.1c30.9-19,64.8-32.5,100.3-40c19.5-3.7,39.4-5.4,59.3-5.2c19.8,0.3,39.6,1.7,59.3,4.4v0.4
			c64.5,13.5,119.3,43.3,164.5,89.6c44.7,45.4,76.9,101.5,93.5,162.9h-517.8c-0.3,51.8,7.4,103.3,23,152.6c0.4,1.8,1,3.6,1.6,5.3
			c0.5,1.5,1,3,1.6,4.6s1,3.3,1.6,5.2c12.4,36.8,29,72,49.4,105c20.3,33.1,45.6,62.8,75.1,88c23.9,20.7,51.7,36.5,81.7,46.4
			c30.7,10.3,61.6,10.2,92.8-0.4c3.2-1.3,6.5-2.7,9.9-4c9.4-4.7,18.6-10,27.4-15.9C4746,1302.5,4774.2,1244,4783.5,1164.1z
			 M4335.5,937h439.6c-15-54.1-42-104.1-78.9-146.3c-16.1-18.5-34.6-34.6-55.1-48c-20.5-13.4-43.4-22.7-67.4-27.3
			c-48.4-8.5-94.7-2.5-139.1,17.8c-24,12.7-43.1,30.2-57.3,52.5c-14.3,22.6-24.7,47.4-30.9,73.3
			C4340.1,884.6,4336.5,910.7,4335.5,937z"/>
	</g>
</g>
</svg>
