<svg xmlns="http://www.w3.org/2000/svg" xmlns:xlink="http://www.w3.org/1999/xlink" viewBox="0 0 4852.48 1405"><defs><style>.cls-1{fill:url(#Degradado_sin_nombre_113);}.cls-2{fill:url(#Degradado_sin_nombre_113-2);}.cls-3{fill:url(#Degradado_sin_nombre_113-3);}.cls-4{fill:url(#Degradado_sin_nombre_113-4);}.cls-5{fill:url(#Degradado_sin_nombre_113-5);}.cls-6{fill:url(#Degradado_sin_nombre_113-6);}.cls-7{fill:url(#Degradado_sin_nombre_113-7);}.cls-8{fill:url(#Degradado_sin_nombre_113-8);}</style><linearGradient id="Degradado_sin_nombre_113" x1="532.06" y1="1396.34" x2="532.06" y2="361.76" gradientUnits="userSpaceOnUse"><stop offset="0.35" stop-color="#b5b5b5"/><stop offset="1" stop-color="#e5e5e5"/></linearGradient><linearGradient id="Degradado_sin_nombre_113-2" x1="1410.98" y1="1405" x2="1410.98" y2="695.53" xlink:href="#Degradado_sin_nombre_113"/><linearGradient id="Degradado_sin_nombre_113-3" x1="1960.57" y1="1401.59" x2="1960.57" y2="705.87" xlink:href="#Degradado_sin_nombre_113"/><linearGradient id="Degradado_sin_nombre_113-4" x1="2580.97" y1="1399.21" x2="2580.97" y2="701.9" xlink:href="#Degradado_sin_nombre_113"/><linearGradient id="Degradado_sin_nombre_113-5" x1="3230.57" y1="1405" x2="3230.57" y2="695.53" xlink:href="#Degradado_sin_nombre_113"/><linearGradient id="Degradado_sin_nombre_113-6" x1="3790.12" y1="1400.8" x2="3790.12" y2="0" xlink:href="#Degradado_sin_nombre_113"/><linearGradient id="Degradado_sin_nombre_113-7" x1="4107.6" y1="1401.59" x2="4107.6" y2="362.17" xlink:href="#Degradado_sin_nombre_113"/><linearGradient id="Degradado_sin_nombre_113-8" x1="4530.84" y1="1405" x2="4530.84" y2="695.53" xlink:href="#Degradado_sin_nombre_113"/></defs><g id="Capa_2" data-name="Capa 2"><g id="Capa_2-2" data-name="Capa 2"><path class="cls-1" d="M1060.58,1394.76a17.69,17.69,0,0,0,3.55.4H866.35a18.34,18.34,0,0,0,14.38-6.5,51.69,51.69,0,0,0,8.87-14,175.81,175.81,0,0,0,13.78-58.5q2-30.93,1.19-62.05-.41-11.43-.4-22.86v-73.67q.39-104.4.59-264.55t-.19-292.72q-.41-132.57-1.58-153.85l-.79.78v.4q-10.63,16.94-72.49,116.42L688.47,791.2q-79.4,127.63-142,228.5T472,1139.86q-4.34-6.69-64.81-103.81T267.11,810.5q-79.58-128.43-142-228.7T54,468.14v817.1a447.1,447.1,0,0,0,3.94,45.3,6.29,6.29,0,0,0,.4,2q1.19,10.63,4.33,25.41a89.26,89.26,0,0,0,10,26.59q6.89,11.82,19.5,11.82H0a18.2,18.2,0,0,0,14.58-6.5,53.78,53.78,0,0,0,8.66-14A163.18,163.18,0,0,0,35.66,1327q2.55-26,2.56-50.82V863.69q0-156.81-.2-276t-.2-127.45a310.41,310.41,0,0,0-9.06-60.68,84.56,84.56,0,0,0-5.12-15.75,54.86,54.86,0,0,0-9.06-14.58Q9.06,363,0,362.94H132l402.25,646.91q9.06-14.57,69.73-112.28T741.66,676q77-123.9,195.21-314.2h127.26a18.06,18.06,0,0,0-13.79,5.91,50.12,50.12,0,0,0-9.06,13.79,77.56,77.56,0,0,0-5.13,15,284.08,284.08,0,0,0-9.85,61.66q-1.58,31.73-.78,63.63.39,13,.39,25.6v726.89q0,11.82.79,23.64a299.25,299.25,0,0,0,8.27,59.09,107.75,107.75,0,0,0,8.08,22.66Q1048.75,1391.61,1060.58,1394.76Z"/><path class="cls-2" d="M1663.65,1164.13h61.84A366.38,366.38,0,0,1,1668,1276.72a334,334,0,0,1-93.56,84.83q-97.52,56.29-203.56,39.64t-184.14-97.52q-74.93-82.05-92.37-190.28t25.37-210.1v-.4q42.82-102.28,136-162.14a315.51,315.51,0,0,1,100.29-40,300.64,300.64,0,0,1,59.27-5.15,500.54,500.54,0,0,1,59.26,4.36v.4q96.72,20.2,164.52,89.59a370.25,370.25,0,0,1,93.56,162.93H1214.89a498.09,498.09,0,0,0,23,152.62,51.69,51.69,0,0,0,1.58,5.35q.79,2.19,1.59,4.56c.53,1.59,1,3.31,1.58,5.16a514.65,514.65,0,0,0,49.36,105,371.51,371.51,0,0,0,75.12,88,240.17,240.17,0,0,0,81.67,46.39q46,15.45,92.76-.4,4.76-2,9.91-4a255.63,255.63,0,0,0,27.35-15.86Q1649.78,1283.86,1663.65,1164.13ZM1215.69,937h439.63a373.7,373.7,0,0,0-78.89-146.28,265.18,265.18,0,0,0-55.1-48,188.11,188.11,0,0,0-67.39-27.35q-72.56-12.68-139.15,17.84a148.38,148.38,0,0,0-57.28,52.53,244,244,0,0,0-30.92,73.33A378,378,0,0,0,1215.69,937Z"/><path class="cls-3" d="M2083.46,733.22q48.76-22.59,99.11-22.2l-36.48,106.24q-36.87-7.14-65-7.73t-58.47,8.33q-30.33,8.91-55.7,32.7-25,33.3-34.49,50.35l-.39.39q-1.2,2.79-7.14,13.68t-13.08,24.38q-7.14,13.49-12.69,23.79V1285q.8,24.59,4.17,51.34t11.49,46q8.12,19.25,23.19,19.23h-199.4q13.47,0,21.41-16.06t11.89-39.64a359.57,359.57,0,0,0,4.76-47.37V933.41q0-28.93-1.39-50.54T1771.47,846a202.26,202.26,0,0,0-5.35-25.37,81.62,81.62,0,0,0-6.14-15.86,31.8,31.8,0,0,0-6.35-8.52,14.2,14.2,0,0,0-5.74-3.37,12.48,12.48,0,0,0-4.17-.4,3.9,3.9,0,0,0-2,.6l34.89-19.43,122.49-67.78V929.05q8.33-15.06,14.27-26.16c.8-1.59,1.72-3.3,2.78-5.16s2-3.43,2.77-4.75a8.37,8.37,0,0,0,1.19-2.38q7.93-13.47,24-36.07t40.23-48Q2031.14,757.8,2083.46,733.22Z"/><path class="cls-4" d="M2941.71,701.9h17.85l-330.23,697.31h-65.8L2260.66,759.38a250,250,0,0,0-28.94-40.63q-15.07-16.85-29.34-16.85h166.11l286.61,605.34Z"/><path class="cls-5" d="M3483.24,1164.13h61.84a366.19,366.19,0,0,1-57.49,112.59,333.77,333.77,0,0,1-93.55,84.83q-97.51,56.29-203.57,39.64t-184.13-97.52q-74.93-82.05-92.37-190.28t25.37-210.1v-.4q42.81-102.28,136-162.14a315.56,315.56,0,0,1,100.3-40,300.57,300.57,0,0,1,59.27-5.15,500.54,500.54,0,0,1,59.26,4.36v.4q96.72,20.2,164.52,89.59a370.13,370.13,0,0,1,93.55,162.93H3034.48a498.09,498.09,0,0,0,23,152.62,51.69,51.69,0,0,0,1.58,5.35c.53,1.46,1.05,3,1.59,4.56s1,3.31,1.58,5.16a514.12,514.12,0,0,0,49.36,105,371.51,371.51,0,0,0,75.12,88,240.13,240.13,0,0,0,81.66,46.39q46,15.45,92.77-.4,4.76-2,9.91-4a255.63,255.63,0,0,0,27.35-15.86Q3469.35,1283.86,3483.24,1164.13ZM3035.27,937h439.64A373.83,373.83,0,0,0,3396,790.7a265.43,265.43,0,0,0-55.1-48,188.19,188.19,0,0,0-67.39-27.35q-72.56-12.68-139.15,17.84-36.08,19-57.28,52.53a244,244,0,0,0-30.92,73.33A378.73,378.73,0,0,0,3035.27,937Z"/><path class="cls-6" d="M3964.49,37.89q48,32.11,74.33,81.66t24.38,104.27q-2.77,54.71-33.5,98.9t-78.29,64v897.1a443.89,443.89,0,0,0,4,51.74q3.57,26.76,11.7,46t22.79,19.23h-199q13.47,0,21.4-16.26t11.7-39.84a438.61,438.61,0,0,0,4.95-47.37V588.53q0-28.93-1.38-50.55t-3.77-37.06a171.75,171.75,0,0,0-5.55-25.38,99,99,0,0,0-6.34-15.85c-2.12-4-4.23-6.8-6.34-8.53A15.5,15.5,0,0,0,3800,448a12.11,12.11,0,0,0-4.16-.39,4.32,4.32,0,0,0-2.18.59l35.28-19.42L3951.41,361v8.72q41.22-19.43,67.39-58.87T4047.74,223q1.58-50.73-23-96.53t-69-75.12Q3867.36-2.93,3760.33,26q-96.72,29.34-162.13,119.72-60.66,88-65,195.83t46.38,201.78q4-27.35,24-45.39t47.38-18q30.12,0,51.14,21t21,51.13q0,29.73-21,50.75t-51.14,21a70.13,70.13,0,0,1-38.26-10.9,71.94,71.94,0,0,1-26.36-29.14q-65.79-94-69.37-216.45-1.59-130.42,68.18-230.72,69-94.74,170.86-126.06Q3870.14-20,3964.49,37.89Zm-234.68,1246q.78,25,4.16,51.74t11.49,46q8.13,19.23,23.19,19.23H3569.26q13.47,0,21.4-16.26t11.9-39.84a359.56,359.56,0,0,0,4.75-47.37V932.62q0-29.32-1.39-50.94t-3.76-36.87a204.07,204.07,0,0,0-5.35-25.37,80.92,80.92,0,0,0-6.15-15.86,32,32,0,0,0-6.34-8.52,14.23,14.23,0,0,0-5.75-3.37,9.19,9.19,0,0,0-4.16-.2,4.94,4.94,0,0,0-2,.8l34.88-19.43,122.5-67.79v578.78Z"/><path class="cls-7" d="M4207.1,1401.59h-199q13.47,0,21.4-16.06t11.7-39.64a438.61,438.61,0,0,0,5-47.37V589.71q0-29.33-1.38-50.94T4041,501.91a180.3,180.3,0,0,0-5.55-25.38,89.91,89.91,0,0,0-6.34-15.85,34.92,34.92,0,0,0-6.15-8.53,12.87,12.87,0,0,0-5.55-3.37,10.16,10.16,0,0,0-4.36-.19,15.88,15.88,0,0,1-2.18.39l157.78-86.81V1285a443.76,443.76,0,0,0,4,51.34q3.57,26.76,11.7,46T4207.1,1401.59Z"/><path class="cls-8" d="M4783.5,1164.13h61.85a366.41,366.41,0,0,1-57.49,112.59,333.77,333.77,0,0,1-93.55,84.83q-97.52,56.29-203.57,39.64t-184.13-97.52q-74.94-82.05-92.37-190.28t25.37-210.1v-.4q42.81-102.28,136-162.14a315.56,315.56,0,0,1,100.3-40,300.57,300.57,0,0,1,59.27-5.15,500.54,500.54,0,0,1,59.26,4.36v.4q96.72,20.2,164.52,89.59a370.13,370.13,0,0,1,93.55,162.93H4334.75a497.78,497.78,0,0,0,23,152.62,51.69,51.69,0,0,0,1.58,5.35c.53,1.46,1.05,3,1.59,4.56s1.05,3.31,1.58,5.16a514.12,514.12,0,0,0,49.36,105,371.05,371.05,0,0,0,75.12,88,240.13,240.13,0,0,0,81.66,46.39q46,15.45,92.77-.4,4.76-2,9.91-4a255.63,255.63,0,0,0,27.35-15.86Q4769.62,1283.86,4783.5,1164.13ZM4335.54,937h439.64a373.83,373.83,0,0,0-78.89-146.28,265.69,265.69,0,0,0-55.1-48,188.19,188.19,0,0,0-67.39-27.35q-72.55-12.68-139.15,17.84-36.07,19-57.28,52.53a244,244,0,0,0-30.93,73.33A379.38,379.38,0,0,0,4335.54,937Z"/></g></g></svg>