<?xml version="1.0" encoding="utf-8"?>
<!-- Generator: Adobe Illustrator 25.2.1, SVG Export Plug-In . SVG Version: 6.00 Build 0)  -->
<svg version="1.1" id="Capa_1" xmlns="http://www.w3.org/2000/svg" xmlns:xlink="http://www.w3.org/1999/xlink" x="0px" y="0px"
	 viewBox="0 0 936 1682" style="enable-background:new 0 0 936 1682;" xml:space="preserve">
<style type="text/css">
	.st0{fill:#FFFFFF;}
</style>
<path class="st0" d="M849.1,836.1c-17.4-17.4-45.6-17.4-63,0L531.3,1091V483.5c0-34.9-28.3-63.3-63.3-63.3s-63.3,28.3-63.3,63.3
	V1091L149.8,836.1c-17.4-17.4-45.6-17.4-63,0c-8.7,8.7-13,20.1-13,31.5c0,11.4,4.3,22.8,13,31.5l349.6,349.6
	c17.4,17.4,45.6,17.4,63,0l349.6-349.6C866.5,881.7,866.5,853.5,849.1,836.1z"/>
</svg>
