<svg id="Capa_1" data-name="Capa 1" xmlns="http://www.w3.org/2000/svg" viewBox="0 0 439.19 531.95"><defs><style>.cls-1{fill:#b38759;}</style></defs><path class="cls-1" d="M400.11,134c-120.56,0-219.59,99-219.59,219.59S400.11,666,400.11,666s219.6-191.79,219.6-312.36S520.67,134,400.11,134Zm1,373.66a153.1,153.1,0,1,1,153.1-153.1A153.09,153.09,0,0,1,401.09,507.66Z" transform="translate(-180.52 -134)"/><path class="cls-1" d="M492.56,330.13c0,40.76-28.37,66.11-73.7,66.11H384.68v50.44H345.41V263.74h73.45C464.19,263.74,492.56,289.09,492.56,330.13Zm-39.76,0c0-20.13-12.12-31.89-36.12-31.89h-32v63.51h32C440.68,361.75,452.8,350,452.8,330.13Z" transform="translate(-180.52 -134)"/></svg>