<svg id="Capa_1" data-name="Capa 1" xmlns="http://www.w3.org/2000/svg" viewBox="0 0 524.1 526.11"><path d="M439.88,658.28C759.82,607.18,720.82,134.59,395.67,134c-228.25.53-346.29,289.46-183.44,449.48C277,649.4,353.47,666.27,439.88,658.28ZM435,629.57V464.17h54.23l10.06-64.82H435c-.31-62.28-8.49-87.9,66.76-82.75V261.36C409.89,245.74,358.11,273,365.11,371.13c0,9.11-.17,18.83-.17,28l-58.73,0v64.66h58.32V629c-61-6.48-118.11-43.84-153.85-92.29C99.88,393,205.88,168.91,387.36,163.63,605,147.89,720.85,433.91,554.42,574.23a237.05,237.05,0,0,1-30.49,22.87c-5.09,4.51-33.62,16.64-40,20.1C468.69,623.13,451.24,627.13,435,629.57Z" transform="translate(-136.59 -134)"/><polygon points="389.39 451.94 389.39 451.94 389.39 451.94 389.39 451.94"/></svg>