<svg id="Capa_1" data-name="Capa 1" xmlns="http://www.w3.org/2000/svg" viewBox="0 0 532.08 531.29"><defs><style>.cls-1{fill:#b38759;}</style></defs><path class="cls-1" d="M666.09,381.27c11,181-162.27,326.36-338.13,274.69C188.54,617.2,108.34,472.17,142.25,333.39,224.67,38.43,643.3,88,666.09,381.27ZM400,623c290,2.57,300-441.62.55-447.61C102.23,179.73,108,624.3,400,623Z" transform="translate(-134.5 -135.23)"/><path class="cls-1" d="M420.89,313.78c0,19.38-.09,38.76.12,58.14a12.89,12.89,0,0,0,2.67,7.26,37.8,37.8,0,0,1,7.66,18.41,13.21,13.21,0,0,0,3.23,7c20.55,20.81,41.29,41.42,61.93,62.14,6.15,6.19,8.15,13.64,5.22,21.92-2.86,8.05-8.89,12.68-17.32,13.74-7.43.93-13.34-2.27-18.5-7.47C446,474.93,426,455.05,406.14,435a13.38,13.38,0,0,0-8.85-4.38c-12.68-1.21-21.58-8.08-26.12-19.93s-2.24-22.67,6.08-32.36a10.72,10.72,0,0,0,2-6.48c.12-38.76,0-77.52.11-116.28,0-16,13.65-26,28.14-20.73,8.27,3,13.31,10.41,13.36,20.25C421,274.68,420.89,294.23,420.89,313.78Z" transform="translate(-134.5 -135.23)"/></svg>