<svg id="Capa_1" data-name="Capa 1" xmlns="http://www.w3.org/2000/svg" viewBox="0 0 626 626"><defs><style>.cls-1{fill:#fff;opacity:0.8;}.cls-2{fill:#b38759;}</style></defs><circle class="cls-1" cx="313" cy="313" r="313"/><path class="cls-2" d="M362.81,547.54A114.79,114.79,0,0,1,248.16,432.89V320.38a114.65,114.65,0,1,1,229.3,0V432.86A114.8,114.8,0,0,1,362.81,547.54Zm0-341A114,114,0,0,0,249,320.38V432.86a113.81,113.81,0,0,0,227.61,0V320.38A114,114,0,0,0,362.81,206.57Z" transform="translate(-87 -87)"/><path class="cls-2" d="M259.83,444.13V331.61A114.24,114.24,0,0,1,374.08,217.37h0a113.78,113.78,0,0,1,74.94,28,113.85,113.85,0,0,0-86.18-39.27h0A114.23,114.23,0,0,0,248.6,320.38V432.86A114,114,0,0,0,287.86,519,113.64,113.64,0,0,1,259.83,444.13Z" transform="translate(-87 -87)"/><path class="cls-2" d="M437.22,252.43a114.9,114.9,0,0,0-108.28,76.89l.76.47A113.81,113.81,0,0,1,551,367.11V479.59a113.81,113.81,0,1,1-227.61,0V367.11c0-1.38,0-2.76.06-4.11a5,5,0,0,1-.88.56c0,1.19-.06,2.39-.06,3.58V479.62a114.65,114.65,0,1,0,229.3,0V367.11A114.73,114.73,0,0,0,437.22,252.43Z" transform="translate(-87 -87)"/><path class="cls-2" d="M512.17,280.89a113.8,113.8,0,0,1,28,74.95V468.33A114.24,114.24,0,0,1,426,582.57h0a113.78,113.78,0,0,1-74.95-28,113.93,113.93,0,0,0,86.21,39.3h0A114.24,114.24,0,0,0,551.47,479.59V367.11A114,114,0,0,0,512.17,280.89Z" transform="translate(-87 -87)"/><path class="cls-2" d="M484,484.65h0a2,2,0,0,1-1.2-1.23,17.63,17.63,0,0,1-1.13-3.32v0a51.71,51.71,0,0,1-1.25-9.54v-.06c-.09-1.26-.13-2.54-.13-3.83V344c0-1.41,0-2.89-.06-4.36-.09-3.52,0-7.06.13-10.58a49.37,49.37,0,0,1,1.47-9.92l0-.12a11.48,11.48,0,0,1,.66-2.11,6.43,6.43,0,0,1,1-1.69.45.45,0,0,1,.41-.19v-4.71H462.52l-.69,1.16q-18.65,32.12-30.82,53t-21.75,37.38c-4.11,7.1-7.13,12.24-9,15.44L338.14,310.58H316v2.36h0v2.35c.28,0,.38.06.47.19a6.55,6.55,0,0,1,1.07,1.85,16,16,0,0,1,.69,2.23l0,.09a56,56,0,0,1,1.38,9.73c0,1.13,0,8.29,0,21.44,0,13.75,0,29.41,0,46.54v69.55c0,2.7-.12,5.53-.4,8.35a27.86,27.86,0,0,1-1.79,7.6,6.69,6.69,0,0,1-1,1.76.5.5,0,0,1-.47.21v2.36h0v2.35h14.56v-2.35h0v-2.36c-.25,0-.59,0-1-.75a13.2,13.2,0,0,1-1.35-3.83c-.32-1.57-.53-2.95-.66-4.08l0-.25,0-.12v0a71.72,71.72,0,0,1-.6-7.37V339.33L333.68,351c6.59,11.33,14.16,24.29,22.41,38.57s15.73,27.06,22.13,38,9.79,16.79,10.26,17.55l2.07,3.42,2-3.46c1.26-2.19,5.21-9,11.74-20.24l22.41-38.54,4.45-7.66Q441,361.81,449,348.09c3-5.18,5.46-9.39,7.35-12.59,0,4.3.06,10.17.09,17.55,0,15,.06,31.6,0,49.34,0,17.95-.06,32.95-.09,44.59v12.43c0,1.32,0,2.64.06,3.93.09,3.42,0,6.87-.19,10.26a29.51,29.51,0,0,1-2,9.13,7,7,0,0,1-1,1.73c-.19.22-.29.25-.44.25v2.35h0v2.36H484l0-4.46.06-.25Z" transform="translate(-87 -87)"/></svg>