<svg id="Capa_1" data-name="Capa 1" xmlns="http://www.w3.org/2000/svg" viewBox="0 0 517.43 517.34"><path d="M141.2,281.72q-.15,118.5.06,237a136,136,0,0,0,2,25.11c13,68.69,68.75,114.89,138.78,115,39,0,196.09.1,235.6-.08A147.08,147.08,0,0,0,542.29,657c69.42-12.16,116.11-67.76,116.21-138.35q.15-118.5-.06-237a140.32,140.32,0,0,0-1.74-23.85c-12.19-69.43-67.79-116.11-138.38-116.19q-50.63-.06-101.27-.05-67.87,0-135.79.11a139.65,139.65,0,0,0-23.87,1.72C188,155.52,141.28,211.12,141.2,281.72Zm139-104.47,43.5,0q97.88-.08,195.77.05c52,.13,93,34.63,102.08,85.88a103.86,103.86,0,0,1,1.27,18.3l0,39.61q.09,99.1,0,198.2c-.13,52.34-34.73,93.58-86.11,102.62A113.36,113.36,0,0,1,517,623.14l-237.14,0c-52-.34-92.94-35-101.87-86.27A101,101,0,0,1,176.88,520l0-52.52q-.08-93.74.08-187.45c.16-52,34.91-92.85,86.44-101.67A99.82,99.82,0,0,1,280.19,177.25Z" transform="translate(-141.13 -141.53)"/><path d="M399.56,505.69h.32A105.23,105.23,0,0,0,505.33,400.16c0-57.94-47.22-105.25-105.21-105.44h-.4A105.14,105.14,0,0,0,294.35,400.21C294.35,458.19,341.55,505.51,399.56,505.69Zm.23-180.61H400a74.94,74.94,0,0,1,52.37,128.53,74.1,74.1,0,0,1-52.27,21.72h-1c-41.35-.6-74.71-34.51-74.38-75.62S358.71,325.08,399.79,325.08Z" transform="translate(-141.13 -141.53)"/><path d="M550.79,249.22A21.66,21.66,0,0,0,535.35,243h0a21.75,21.75,0,0,0,0,43.49h0a21.89,21.89,0,0,0,15.39-37.24Z" transform="translate(-141.13 -141.53)"/></svg>