<svg id="Capa_1" data-name="Capa 1" xmlns="http://www.w3.org/2000/svg" viewBox="0 0 615.58 517.43"><path d="M538.51,569.61a353.06,353.06,0,0,0,64.75-80.16A367.85,367.85,0,0,0,639,408a357,357,0,0,0,14.12-74.46c.4-5.06.69-10.2.85-15.39l.13-3.51,2.6-2.33a265.81,265.81,0,0,0,41.66-47.44l1.53-2.31c11.34-17.45,10-39-2.8-54.35-.63-.74-1.25-1.46-1.91-2.14l-2.67-2.78.42-3.8a45.06,45.06,0,0,0-16-39.57A46.17,46.17,0,0,0,626.22,155l-8.1,4.45a168.82,168.82,0,0,1-22.81,10.13L591.36,171l-3.47-2.38C553.7,145.25,514.36,136.87,474,143.89a149.22,149.22,0,0,0-90.08,52c-15.88,19-26.67,40.19-32.05,62.89l-2,8.31-8.23-2.27a261.55,261.55,0,0,1-132.09-85.94,46,46,0,0,0-35.88-17.26c-17,0-32.16,9.15-40.54,24.44-18.94,34.59-24.11,72.9-14.94,110.81.74,3.08,1.59,6.12,2.5,9.14l1.1,3.58-2,3.18a45.17,45.17,0,0,0-6.9,24.12c.08,36.62,11.43,69.3,33.78,97.07l4.55,5.47-.23,3.3A44.34,44.34,0,0,0,152.66,458c4.85,17.24,13.88,34.47,26.07,49.86l9.9,12.47-15.91.85a197.43,197.43,0,0,1-31-.77c-1.51-.14-3-.21-4.51-.21a45.18,45.18,0,0,0-24.71,83l2.25,1.48a369.9,369.9,0,0,0,36.6,20.18A349.91,349.91,0,0,0,289.9,658.67,373.21,373.21,0,0,0,369.35,653a341.82,341.82,0,0,0,88.19-28.4A334,334,0,0,0,538.51,569.61Zm-175.68,47A338,338,0,0,1,303.26,622c-4,0-8-.08-12-.21a312.83,312.83,0,0,1-124-30.31,322.14,322.14,0,0,1-32.87-18.12l-1.32-.83c-7.33-4.6-3.6-15.94,5-15.28h0c49.17,4.93,95.21-5.37,135.87-30.91a116.12,116.12,0,0,1-55.51-29.64c-14.06-13.28-25.37-31.49-30.22-48.67l-3.6-12.76,13,2.44a104.65,104.65,0,0,0,10.86,1.45,115.57,115.57,0,0,1-33-28.28c-16.93-21.07-25.56-46-25.63-74v-5.68a4.86,4.86,0,0,1,7.19-4.28l5,2.73a103.89,103.89,0,0,0,17.54,7.63,113,113,0,0,1-25.45-49c-7.07-29.24-3.21-57.61,11.44-84.35h0a8.9,8.9,0,0,1,14.89-2.16c.32.37.55.65.66.79a298.76,298.76,0,0,0,105.91,81.59,294.52,294.52,0,0,0,91,25.22c2.65.29,5.29.55,7.94.77-4.47-33.76,4.39-64.16,26.36-90.49a111,111,0,0,1,68-39.27c32.49-5.59,62.25,1.38,89,20.48a105.36,105.36,0,0,1,13,11,210.61,210.61,0,0,0,53.17-19.74l17.93-9.83a4,4,0,0,1,5.76,4.82l-3.42,10.15a118.37,118.37,0,0,1-24.32,42,265.24,265.24,0,0,0,27.76-9.6l12.43-5.29a4,4,0,0,1,5,5.88L668,243.89a227.88,227.88,0,0,1-50.84,53.19,308.74,308.74,0,0,1-.8,33.52,319.29,319.29,0,0,1-12.68,66.73A332.5,332.5,0,0,1,571.5,470.6a316.33,316.33,0,0,1-58,71.8,297,297,0,0,1-72,48.91A305.41,305.41,0,0,1,362.83,616.65Z" transform="translate(-92.05 -141.48)"/></svg>